<svg height="512" viewBox="0 0 64 64" width="512" xmlns="http://www.w3.org/2000/svg"><g id="Filled_outline" data-name="Filled outline"><path d="m-11 28h42v14h-42z" fill="#d3843d" transform="matrix(0 1 -1 0 45 25)"/><path d="m31 26h48v12h-48z" fill="#f1997e" transform="matrix(0 1 -1 0 87 -23)"/><path d="m51 10h8v12h-8z" fill="#cfdfe8" transform="matrix(0 1 -1 0 71 -39)"/><path d="m51 22h8v12h-8z" fill="#cfdfe8" transform="matrix(0 1 -1 0 83 -27)"/><path d="m49 27h5v2h-5z" fill="#d3843d"/><path d="m56 27h2v2h-2z" fill="#d3843d"/><path d="m18 25h46v16h-46z" fill="#fcec97" transform="matrix(0 1 -1 0 74 -8)"/><circle cx="41" cy="18" fill="#e4544f" r="4"/><path d="m39 42h4v16h-4z" fill="#e4544f" transform="matrix(0 1 -1 0 91 9)"/><path d="m39 38h4v16h-4z" fill="#cfdfe8" transform="matrix(0 1 -1 0 87 5)"/><path d="m8 14h4v14h-4z" fill="#fcec97" transform="matrix(0 1 -1 0 31 11)"/><path d="m7 46h6v14h-6z" fill="#fcec97" transform="matrix(0 1 -1 0 63 43)"/><g fill="#cfdfe8"><path d="m7 26h6v2h-6z"/><path d="m9 30h2v2h-2z"/><path d="m1 24h48v16h-48z" transform="matrix(0 1 -1 0 57 7)"/></g><path d="m21 8h8v16h-8z" fill="#7fc99d" transform="matrix(0 1 -1 0 41 -9)"/><path d="m21 40h8v16h-8z" fill="#7fc99d" transform="matrix(0 1 -1 0 73 23)"/><path d="m17 36h16v4h-16z" fill="#7fc99d"/><circle cx="25" cy="28" fill="#fcec97" r="4"/><path d="m61 7h-12a1 1 0 0 0 -1 1v1h-14v-1a1 1 0 0 0 -1-1h-16a1 1 0 0 0 -1 1v5h-13a1 1 0 0 0 -1 1v42a1 1 0 0 0 1 1h58a1 1 0 0 0 1-1v-48a1 1 0 0 0 -1-1zm-1 24h-10v-2h4v-2h-4v-2h10zm-56-7h12v25h-12zm0-4h12v2h-12zm56-1h-10v-6h10zm-12 28h-14v-2h14zm-16-8h-14v-2h14zm-14 2h14v2h-14zm14-6h-14v-14h14zm0-16h-14v-6h14zm-14 26h14v6h-14zm16 4h14v2h-14zm16-26v-2h10v2zm0-14h10v2h-10zm-2 2v32h-14v-32zm-16-2v2h-14v-2zm-16 6v3h-12v-3zm-12 36h12v4h-12zm14 2h14v2h-14zm16 0h14v2h-14zm16 2v-22h10v22z"/><path d="m56 27h2v2h-2z"/><path d="m41 23a5 5 0 1 0 -5-5 5.006 5.006 0 0 0 5 5zm0-8a3 3 0 1 1 -3 3 3 3 0 0 1 3-3z"/><path d="m7 26h6v2h-6z"/><path d="m9 30h2v2h-2z"/><path d="m25 33a5 5 0 1 0 -5-5 5.006 5.006 0 0 0 5 5zm0-8a3 3 0 1 1 -3 3 3 3 0 0 1 3-3z"/></g></svg>