<svg height="480pt" viewBox="0 0 480 480" width="480pt" xmlns="http://www.w3.org/2000/svg"><path d="m204.421875 199.15625 7.15625-14.308594 144.003906 72-7.15625 14.3125zm0 0" fill="#394d5c"/><path d="m224.410156 261.464844 16.015625-48 15.167969 5.0625-16.015625 48zm0 0" fill="#394d5c"/><path d="m208 264h160v64h-160zm0 0" fill="#7d8d9c"/><path d="m8 432h464v40h-464zm0 0" fill="#d3843d"/><path d="m168 216c0 8.835938-7.164062 16-16 16s-16-7.164062-16-16 7.164062-16 16-16 16 7.164062 16 16zm0 0" fill="#ffd782"/><path d="m96 104s8 104-56 176c0 0 40 80 40 152h-72v-328zm0 0" fill="#da1c4b"/><path d="m8 272h40v16h-40zm0 0" fill="#f98c96"/><path d="m384 104s-8 104 56 176c0 0-40 80-40 152h72v-328zm0 0" fill="#da1c4b"/><path d="m432 272h40v16h-40zm0 0" fill="#f98c96"/><path d="m168 328v-80h-32v112h72v-32zm0 0" fill="#d3843d"/><path d="m176 360h32v72h-32zm0 0" fill="#995f5b"/><path d="m184 432h-16v-64h-48v64h-16v-80h80zm0 0" fill="#394d5d"/><path d="m112 360h64v32h-64zm0 0" fill="#d91d4c"/><path d="m184 400h-80v-48h80zm-64-16h48v-16h-48zm0 0" fill="#da1c4b"/><path d="m208 328h160v32h-160zm0 0" fill="#143441"/><path d="m248 360h16v72h-16zm0 0" fill="#394d5c"/><path d="m312 360h16v72h-16zm0 0" fill="#394d5c"/><path d="m208 288h-24c-2.121094 0-4.15625-.84375-5.65625-2.34375l-16-16 11.3125-11.3125 13.65625 13.65625h20.6875zm0 0" fill="#995f5b"/><path d="m328 288h16v16h-16zm0 0" fill="#143441"/><path d="m296 288h16v16h-16zm0 0" fill="#143441"/><path d="m8 8h464v96h-464zm0 0" fill="#f44e7e"/><path d="m112 40h256v32h-256zm0 0" fill="#da1c4b"/><path d="m72 56c0 8.835938-7.164062 16-16 16s-16-7.164062-16-16 7.164062-16 16-16 16 7.164062 16 16zm0 0" fill="#f98c96"/><path d="m440 56c0 8.835938-7.164062 16-16 16s-16-7.164062-16-16 7.164062-16 16-16 16 7.164062 16 16zm0 0" fill="#f98c96"/><path d="m176 216c0-13.253906-10.746094-24-24-24s-24 10.746094-24 24 10.746094 24 24 24 24-10.746094 24-24zm-24 8c-4.417969 0-8-3.582031-8-8s3.582031-8 8-8 8 3.582031 8 8-3.582031 8-8 8zm0 0"/><path d="m328 288h16v16h-16zm0 0"/><path d="m296 288h16v16h-16zm0 0"/><path d="m0 472c0 4.417969 3.582031 8 8 8h464c4.417969 0 8-3.582031 8-8v-472h-480zm49.144531-360c2.535157 15.878906 6.144531 62.894531-24.625 124.425781l14.3125 7.148438c31.496094-62.972657 29.457031-111.429688 26.527344-131.574219h22.921875c.320312 24.144531-2.855469 102.398438-52.058594 160h-20.222656v-160zm395.917969 176h18.9375v136h-24.929688c-1.585937-26.460938 3.984376-52.859375 16.128907-76.425781l-14.320313-7.148438c-13.253906 25.78125-19.417968 54.625-17.855468 83.574219h-14.855469c2.359375-57.753906 29.199219-119.40625 36.894531-136zm-52.839844 136h-64.222656v-56h48v-112h-22.113281l-142.3125-71.160156-7.148438 14.320312 34.933594 17.464844-13.121094 39.375h-26.238281v16h-12.6875l-11.3125-11.3125v-12.6875c0-4.417969-3.582031-8-8-8h-32c-4.417969 0-8 3.582031-8 8v104h-24v72h-16.222656c-2.296875-61.3125-29.921875-124.800781-38.289063-142.734375 52.0625-61.890625 55.3125-142.867187 54.839844-169.265625h271.34375c-.464844 26.398438 2.777344 107.375 54.839844 169.265625-8.367188 17.933594-35.992188 81.421875-38.289063 142.734375zm-224.222656-88h32v16h-56v-96h16v72c0 4.417969 3.582031 8 8 8zm150.113281-80h-75.015625l10.71875-32.152344zm41.886719 16v48h-144v-48zm-144 80v-16h144v16zm-16-32h-24v-36.6875l2.34375 2.34375c1.5 1.5 3.535156 2.34375 5.65625 2.34375h16zm-32 48v16h-48v-16zm0 32v24h-48v-24zm16-32h16v56h-16zm32 0h32v56h-32zm48 0h48v56h-48zm-223.414062 56h-24.585938v-136h18.945312c7.695313 16.585938 34.527344 78.183594 36.886719 136h-15.199219c1.582032-28.945312-4.5625-57.789062-17.800781-83.574219l-14.3125 7.148438c12.078125 23.585937 17.625 49.972656 16.066407 76.425781zm423.414062 40h-448v-24h448zm0-192h-20.222656c-49.089844-57.496094-52.34375-135.824219-52.050782-160h22.59375c-2.929687 20.144531-4.96875 68.601562 26.519532 131.574219l14.320312-7.148438c-30.769531-61.53125-27.160156-108.546875-24.625-124.425781h33.464844zm-448-256h448v80h-448zm0 0"/><path d="m376 32h-272v48h272zm-16 32h-240v-16h240zm0 0"/><path d="m56 32c-13.253906 0-24 10.746094-24 24s10.746094 24 24 24 24-10.746094 24-24-10.746094-24-24-24zm0 32c-4.417969 0-8-3.582031-8-8s3.582031-8 8-8 8 3.582031 8 8-3.582031 8-8 8zm0 0"/><path d="m424 80c13.253906 0 24-10.746094 24-24s-10.746094-24-24-24-24 10.746094-24 24 10.746094 24 24 24zm0-32c4.417969 0 8 3.582031 8 8s-3.582031 8-8 8-8-3.582031-8-8 3.582031-8 8-8zm0 0"/></svg>